HIERARCHY
ROOT Hips
{
	OFFSET	0.00	0.00	0.00
	CHANNELS 6 Xposition Yposition Zposition Zrotation Xrotation Yrotation
	JOINT LeftUpLeg
	{
		OFFSET	 0.126116	-0.065224	 0.014019
		CHANNELS 3 Zrotation Xrotation Yrotation
		JOINT LeftLeg
		{
			OFFSET	 0.000000	 0.569914	 0.000000
			CHANNELS 3 Zrotation Xrotation Yrotation
			JOINT LeftFoot
			{
				OFFSET	 0.000000	 0.544423	 0.000000
				CHANNELS 3 Zrotation Xrotation Yrotation
				JOINT LeftToeBase
				{
					OFFSET	 0.000000	 0.207117	 0.000000
					CHANNELS 3 Zrotation Xrotation Yrotation
					End Site
					{
						OFFSET	 0.000000	 0.207117	 0.000000
					}
				}
			}
		}
	}
	JOINT RightUpLeg
	{
		OFFSET	-0.124023	-0.065224	 0.008373
		CHANNELS 3 Zrotation Xrotation Yrotation
		JOINT RightLeg
		{
			OFFSET	 0.000000	 0.570047	 0.000000
			CHANNELS 3 Zrotation Xrotation Yrotation
			JOINT RightFoot
			{
				OFFSET	 0.000000	 0.544354	 0.000000
				CHANNELS 3 Zrotation Xrotation Yrotation
				JOINT RightToeBase
				{
					OFFSET	 0.000000	 0.207540	 0.000000
					CHANNELS 3 Zrotation Xrotation Yrotation
					End Site
					{
						OFFSET	 0.000000	 0.207540	 0.000000
					}
				}
			}
		}
	}
	JOINT Spine
	{
		OFFSET	 0.000184	 0.117403	 0.007763
		CHANNELS 3 Zrotation Xrotation Yrotation
		JOINT Spine1
		{
			OFFSET	 0.000000	 0.137269	 0.000000
			CHANNELS 3 Zrotation Xrotation Yrotation
			JOINT Spine2
			{
				OFFSET	 0.000000	 0.156879	 0.000000
				CHANNELS 3 Zrotation Xrotation Yrotation
				JOINT LeftShoulder
				{
					OFFSET	 0.080501	 0.160143	 0.002496
					CHANNELS 3 Zrotation Xrotation Yrotation
					JOINT LeftArm
					{
						OFFSET	 0.000000	 0.164363	 0.000000
						CHANNELS 3 Zrotation Xrotation Yrotation
						JOINT LeftForeArm
						{
							OFFSET	 0.000000	 0.364576	 0.000000
							CHANNELS 3 Zrotation Xrotation Yrotation
							JOINT LeftHand
							{
								OFFSET	 0.000000	 0.360812	 0.000000
								CHANNELS 3 Zrotation Xrotation Yrotation
								JOINT LeftHandIndex1
								{
									OFFSET	 0.000000	 0.086006	 0.000000
									CHANNELS 3 Zrotation Xrotation Yrotation
									JOINT LeftHandIndex2
									{
										OFFSET	 0.000000	 0.047237	 0.000000
										CHANNELS 3 Zrotation Xrotation Yrotation
										JOINT LeftHandIndex3
										{
											OFFSET	-0.004284	 0.038165	 0.000551
											CHANNELS 3 Zrotation Xrotation Yrotation
											End Site
											{
												OFFSET	-0.004284	 0.038165	 0.000551
											}
										}
									}
								}
							}
						}
					}
				}
				JOINT Neck
				{
					OFFSET	 0.000000	 0.176489	 0.000000
					CHANNELS 3 Zrotation Xrotation Yrotation
					JOINT Head
					{
						OFFSET	 0.000000	 0.077941	 0.001747
						CHANNELS 3 Zrotation Xrotation Yrotation
						End Site
						{
							OFFSET	 0.000000	 0.077941	 0.001747
						}
					}
				}
				JOINT RightShoulder
				{
					OFFSET	-0.080363	 0.159706	-0.000306
					CHANNELS 3 Zrotation Xrotation Yrotation
					JOINT RightArm
					{
						OFFSET	 0.000000	 0.164196	 0.000000
						CHANNELS 3 Zrotation Xrotation Yrotation
						JOINT RightForeArm
						{
							OFFSET	 0.000000	 0.365611	 0.000000
							CHANNELS 3 Zrotation Xrotation Yrotation
							JOINT RightHand
							{
								OFFSET	 0.000000	 0.360648	 0.000000
								CHANNELS 3 Zrotation Xrotation Yrotation
								JOINT RightHandIndex1
								{
									OFFSET	 0.000000	 0.069977	 0.000000
									CHANNELS 3 Zrotation Xrotation Yrotation
									JOINT RightHandIndex2
									{
										OFFSET	 0.000000	 0.052305	 0.000000
										CHANNELS 3 Zrotation Xrotation Yrotation
										JOINT RightHandIndex3
										{
											OFFSET	 0.009002	 0.042196	 0.000782
											CHANNELS 3 Zrotation Xrotation Yrotation
											End Site
											{
												OFFSET	 0.009002	 0.042196	 0.000782
											}
										}
									}
								}
							}
						}
					}
				}
			}
		}
	}
}
MOTION
Frames:    4
Frame Time: 0.03333334
-0.017455	 1.255286	 0.115033	 4.791459	 0.314459	 173.963900	-170.472100	 16.112580	 6.817923	 2.469836	-25.051090	 1.134133	 46.176690	 46.682690	-62.986280	 4.912824	 28.009660	-6.307255	-172.793100	 4.848447	-0.969431	-1.721128	-19.213270	 1.865326	-57.201790	 58.389330	 63.716590	-0.377410	 31.172780	 1.633948	 1.374568	 3.882731	-14.859360	 8.982775	 9.475962	-7.952967	-7.513450	-7.423916	 25.300140	-112.561600	 3.126152	 88.313870	 37.997880	 46.842220	-7.470297	 4.936621	-0.257105	 0.448805	-32.895900	 3.756675	-88.120970	-8.012559	 12.513230	-5.834375	-7.228761	 12.663190	 2.803899	 4.963066	-4.014628	-0.346955	 1.516653	-13.912420	 1.353889	-2.491672	 7.887760	-15.328820	 109.123600	 0.676158	-88.595950	-11.107830	 66.063170	 10.815310	-5.104397	-0.498843	 41.498620	-15.400770	 18.439250	-100.547600	 2.010863	 8.296029	 8.960575	 15.202900	 20.249790	-6.344414	-8.239867	-2.131385	 0.447455
-0.017787	 1.255239	 0.114952	 4.881235	 0.283190	 174.010200	-170.136700	 16.259940	 5.546525	 2.484037	-25.177280	 1.160313	 46.239960	 46.569880	-62.806750	 4.912825	 28.009670	-6.307248	-172.928100	 4.845822	 0.337517	-1.712135	-19.120240	 1.818294	-57.289150	 58.381270	 63.806110	-0.381577	 31.177880	 1.638081	 1.441094	 3.808658	-15.271050	 9.493500	 9.765942	-8.068279	-8.070299	-7.879782	 25.221830	-112.537900	 3.096486	 88.309780	 37.515170	 46.553850	-7.040772	 5.034770	-0.256165	 0.172292	-32.156940	 4.020932	-88.454960	-7.985265	 12.535610	-5.841134	-7.228885	 12.658000	 2.803190	 4.963066	-4.014628	-0.346955	 1.492199	-13.875260	 1.366391	-2.499331	 7.804958	-15.487070	 109.094000	 0.698791	-88.607420	-10.735800	 66.069250	 10.548140	-5.171537	-0.562541	 41.701360	-16.185070	 18.716240	-99.952320	 1.987372	 8.232663	 8.960006	 15.203000	 20.263850	-6.348260	-8.239867	-2.131385	 0.447455
-0.018126	 1.255157	 0.114845	 4.962857	 0.245554	 174.068600	-169.815100	 16.415100	 4.312418	 2.499286	-25.312460	 1.191783	 46.322870	 46.458910	-62.648450	 4.912827	 28.009680	-6.307240	-173.066100	 4.859458	 1.631678	-1.706040	-19.057080	 1.758647	-57.405660	 58.371180	 63.932610	-0.386776	 31.184230	 1.643236	 1.515943	 3.735045	-15.797630	 9.966003	 10.023510	-8.183234	-8.590320	-8.302888	 25.148490	-112.508300	 3.059465	 88.304720	 37.026310	 46.294030	-6.629975	 5.159513	-0.255135	-0.172696	-31.477670	 4.247058	-88.850010	-7.951210	 12.563520	-5.849580	-7.229040	 12.651520	 2.802306	 4.963066	-4.014628	-0.346955	 1.461689	-13.828920	 1.382006	-2.502464	 7.758109	-15.699380	 109.057100	 0.727010	-88.621750	-10.340370	 66.068130	 10.282240	-5.257254	-0.641899	 41.954060	-16.953730	 18.990020	-99.271170	 1.958074	 8.153623	 8.959261	 15.203120	 20.281390	-6.353059	-8.239867	-2.131385	 0.447455
-0.018455	 1.255045	 0.114714	 5.032380	 0.205049	 174.134100	-169.524800	 16.568160	 3.183568	 2.514791	-25.449620	 1.226021	 46.419270	 46.357270	-62.519540	 4.912829	 28.009690	-6.307230	-173.199600	 4.887620	 2.838322	-1.703205	-19.027670	 1.691938	-57.543430	 58.361500	 64.087230	-0.392558	 31.191290	 1.648971	 1.592171	 3.665157	-16.391200	 10.377570	 10.240160	-8.289864	-9.047483	-8.673280	 25.084080	-112.475500	 3.018310	 88.299090	 36.555320	 46.076240	-6.253446	 5.296999	-0.253817	-0.556200	-30.882930	 4.425142	-89.274310	-7.913328	 12.594550	-5.858994	-7.229211	 12.644320	 2.801323	 4.963066	-4.014628	-0.346955	 1.427750	-13.777390	 1.399397	-2.501579	 7.746525	-15.945670	 109.016000	 0.758398	-88.637610	-9.937960	 66.059520	 10.023640	-5.355056	-0.729884	 42.234890	-17.664970	 19.247380	-98.552560	 1.925496	 8.065718	 8.958385	 15.203250	 20.300880	-6.358396	-8.239867	-2.131385	 0.447455
